# xmcd
#
# Track frame offsets: 
#        150
#        12752
#        27558
#        43169
#        56143
#        69166
#        79679
#        92396
#        103319
#        114880
#        127760
#        140560
#        154527
#        166683
#        179270
#        190901
#        203474
#        218391
#        231359
#        243456
#        258793
#        272734
#
# Disc length: 3820 seconds
#
# Revision: 0
# Processed by: cddbd v1.5.1PL0 Copyright (c) Steve Scherf et al.
# Submitted via: ExactAudioCopy v0.95b2
#
DISCID=1a0eea16
DTITLE=Elmore James - The Best Of Elmore James
DYEAR=2004
DGENRE=Blues
TTITLE0=Dust My Broom (with Sonny Boy Williamson)
TTITLE1=I Believe
TTITLE2=I Held My Baby Last Night
TTITLE3=Sinful Woman
TTITLE4=Baby What's Wrong?
TTITLE5=Hawaiian Boogie
TTITLE6=Early In The Morning
TTITLE7=Can't Sop Lovin'
TTITLE8=Strange Kinda Feeling
TTITLE9=Hand In Hand
TTITLE10=Make A Little Love
TTITLE11=Please Find My Baby
TTITLE12=Make My Dreams Come True
TTITLE13=Dark and Dreary
TTITLE14=Rock My Baby Right
TTITLE15=Standing At The Crossroads
TTITLE16=Sunny Land
TTITLE17=Sho'nuff I Do
TTITLE18=Country Boogie
TTITLE19=My Best Friend
TTITLE20=I See My Baby
TTITLE21=She Won't Do Right
EXTD=
EXTT0=
EXTT1=
EXTT2=
EXTT3=
EXTT4=
EXTT5=
EXTT6=
EXTT7=
EXTT8=
EXTT9=
EXTT10=
EXTT11=
EXTT12=
EXTT13=
EXTT14=
EXTT15=
EXTT16=
EXTT17=
EXTT18=
EXTT19=
EXTT20=
EXTT21=
PLAYORDER=
